<svg width="18" height="19" viewBox="0 0 18 19" fill="black" xmlns="http://www.w3.org/2000/svg">
<path fill-rule="evenodd" clip-rule="evenodd" d="M14.923 3.87554C15.0694 4.022 15.0694 4.25944 14.923 4.40587L3.61355 15.7129C3.46709 15.8594 3.22965 15.8593 3.08322 15.7129C2.93679 15.5664 2.93681 15.329 3.08328 15.1825L14.3927 3.87549C14.5391 3.72905 14.7766 3.72908 14.923 3.87554Z" fill="current"/>
<path fill-rule="evenodd" clip-rule="evenodd" d="M3.07566 3.87058C3.2221 3.72413 3.45954 3.72413 3.60599 3.87058L14.9248 15.1894C15.0713 15.3359 15.0713 15.5733 14.9248 15.7198C14.7784 15.8662 14.5409 15.8662 14.3945 15.7198L3.07566 4.40091C2.92921 4.25446 2.92921 4.01702 3.07566 3.87058Z" fill="current"/>
</svg>
