<svg width="18" height="19" viewBox="0 0 18 19" fill="black" xmlns="http://www.w3.org/2000/svg">
<path d="M3 9.51932C3 8.69089 3.67157 8.01932 4.5 8.01932H9.2425C10.0709 8.01932 10.7425 8.69089 10.7425 9.51932V14.2618C10.7425 15.0902 10.0709 15.7618 9.2425 15.7618H4.5C3.67157 15.7618 3 15.0902 3 14.2618V9.51932Z" fill="current"/>
<path d="M8.75757 3.79517C7.92914 3.79517 7.25757 4.46674 7.25757 5.29517V7.58464H9.71035C10.5388 7.58464 11.2103 8.25621 11.2103 9.08464V11.5377H13.5001C14.3285 11.5377 15.0001 10.8661 15.0001 10.0377V5.29517C15.0001 4.46674 14.3285 3.79517 13.5001 3.79517H8.75757Z" fill="current"/>
</svg>
