<svg width="32" height="33" viewBox="0 0 32 33" fill="#6F6F6F" xmlns="http://www.w3.org/2000/svg">
<path fill-rule="evenodd" clip-rule="evenodd" d="M16.0007 10.6998C12.6344 10.6998 9.90548 13.4288 9.90548 16.7951C9.90548 20.1614 12.6344 22.8903 16.0007 22.8903C19.367 22.8903 22.096 20.1614 22.096 16.7951C22.096 13.4288 19.367 10.6998 16.0007 10.6998ZM8.38167 16.7951C8.38167 12.5872 11.7928 9.17603 16.0007 9.17603C20.2086 9.17603 23.6198 12.5872 23.6198 16.7951C23.6198 21.003 20.2086 24.4141 16.0007 24.4141C11.7928 24.4141 8.38167 21.003 8.38167 16.7951Z" fill="current"/>
<path fill-rule="evenodd" clip-rule="evenodd" d="M14.4767 16.7952C14.4767 15.9536 15.159 15.2714 16.0005 15.2714C16.8421 15.2714 17.5243 15.9536 17.5243 16.7952C17.5243 17.6368 16.8421 18.319 16.0005 18.319C15.159 18.319 14.4767 17.6368 14.4767 16.7952Z" fill="current"/>
<path fill-rule="evenodd" clip-rule="evenodd" d="M16.0002 6.1285C16.421 6.1285 16.7621 6.46962 16.7621 6.89041V9.93803C16.7621 10.3588 16.4215 10.6998 16.0007 10.6998C15.5799 10.6998 15.2383 10.3588 15.2383 9.93803V6.89041C15.2383 6.46962 15.5794 6.1285 16.0002 6.1285ZM5.3335 16.7952C5.3335 16.3744 5.67461 16.0333 6.0954 16.0333H9.14302C9.56381 16.0333 9.90548 16.3743 9.90548 16.7951C9.90548 17.2159 9.56381 17.5571 9.14302 17.5571H6.0954C5.67461 17.5571 5.3335 17.216 5.3335 16.7952ZM22.096 16.7951C22.096 16.3743 22.4365 16.0333 22.8573 16.0333H25.9049C26.3257 16.0333 26.6668 16.3744 26.6668 16.7952C26.6668 17.216 26.3257 17.5571 25.9049 17.5571H22.8573C22.4365 17.5571 22.096 17.2159 22.096 16.7951ZM16.0007 22.8903C16.4215 22.8903 16.7621 23.2315 16.7621 23.6523V26.6999C16.7621 27.1207 16.421 27.4618 16.0002 27.4618C15.5794 27.4618 15.2383 27.1207 15.2383 26.6999V23.6523C15.2383 23.2315 15.5799 22.8903 16.0007 22.8903Z" fill="current"/>
</svg>
