<svg width="16" height="17" viewBox="0 0 16 17" fill="#525252" xmlns="http://www.w3.org/2000/svg">
<path fill-rule="evenodd" clip-rule="evenodd" d="M6.21747 6.35449C6.70145 5.87051 7.35787 5.59861 8.04232 5.59861C8.72677 5.59861 9.38319 5.87051 9.86717 6.35449C10.3511 6.83847 10.623 7.49489 10.623 8.17934C10.623 8.86379 10.3511 9.52021 9.86717 10.0042C9.38319 10.4882 8.72677 10.7601 8.04232 10.7601C7.35787 10.7601 6.70145 10.4882 6.21747 10.0042C5.73349 9.52021 5.46159 8.86379 5.46159 8.17934C5.46159 7.49489 5.73349 6.83847 6.21747 6.35449ZM8.04232 6.26528C7.53468 6.26528 7.04783 6.46694 6.68887 6.8259C6.32991 7.18485 6.12826 7.6717 6.12826 8.17934C6.12826 8.68698 6.32991 9.17383 6.68887 9.53279C7.04783 9.89175 7.53468 10.0934 8.04232 10.0934C8.54996 10.0934 9.03681 9.89175 9.39576 9.53279C9.75472 9.17383 9.95638 8.68698 9.95638 8.17934C9.95638 7.6717 9.75472 7.18485 9.39576 6.8259C9.03681 6.46694 8.54996 6.26528 8.04232 6.26528Z" fill="current"/>
<path fill-rule="evenodd" clip-rule="evenodd" d="M5.8201 3.51267C5.17179 3.51267 4.55003 3.77021 4.09161 4.22864C3.63319 4.68706 3.37565 5.30881 3.37565 5.95712V10.4016C3.37565 11.0499 3.63319 11.6716 4.09161 12.13C4.55003 12.5885 5.17179 12.846 5.8201 12.846H10.2645C10.9128 12.846 11.5346 12.5885 11.993 12.13C12.4514 11.6716 12.709 11.0499 12.709 10.4016V5.95712C12.709 5.30881 12.4514 4.68706 11.993 4.22864C11.5346 3.77021 10.9128 3.51267 10.2645 3.51267H5.8201ZM3.62021 3.75723C4.20365 3.17379 4.99498 2.84601 5.8201 2.84601H10.2645C11.0897 2.84601 11.881 3.17379 12.4644 3.75723C13.0479 4.34068 13.3757 5.132 13.3757 5.95712V10.4016C13.3757 11.2267 13.0479 12.018 12.4644 12.6015C11.881 13.1849 11.0897 13.5127 10.2645 13.5127H5.8201C4.99498 13.5127 4.20365 13.1849 3.62021 12.6015C3.03676 12.018 2.70898 11.2267 2.70898 10.4016V5.95712C2.70898 5.132 3.03676 4.34068 3.62021 3.75723Z" fill="current"/>
<path fill-rule="evenodd" clip-rule="evenodd" d="M11.3197 4.83107C11.4559 4.95491 11.4659 5.16572 11.3421 5.30194L11.3367 5.30789C11.2128 5.44411 11.002 5.45415 10.8658 5.33031C10.7296 5.20647 10.7195 4.99566 10.8434 4.85944L10.8488 4.85349C10.9726 4.71727 11.1834 4.70724 11.3197 4.83107Z" fill="current"/>
</svg>
