<svg width="25" height="25" viewBox="0 0 25 25" fill="black" xmlns="http://www.w3.org/2000/svg">
<path fill-rule="evenodd" clip-rule="evenodd" d="M12.5037 5.12305C8.05059 5.12305 4.64746 7.96843 4.64746 11.251C4.64746 13.3895 6.06913 15.3253 8.31739 16.4346L8.69607 16.6214L7.89997 19.2878L10.9043 17.2533L11.0951 17.2803C11.5518 17.345 12.0226 17.3789 12.5037 17.3789C16.9569 17.3789 20.36 14.5335 20.36 11.251C20.36 7.96843 16.9569 5.12305 12.5037 5.12305ZM7.36167 19.6063L7.36366 19.6059L7.36167 19.6063ZM3.64746 11.251C3.64746 7.2125 7.72679 4.12305 12.5037 4.12305C17.2807 4.12305 21.36 7.2125 21.36 11.251C21.36 15.2894 17.2807 18.3789 12.5037 18.3789C12.043 18.3789 11.5902 18.3506 11.1479 18.296L8.13618 20.3355L8.12608 20.3417C7.94413 20.4527 7.77116 20.5353 7.60732 20.5759C7.4477 20.6153 7.22848 20.6305 7.02554 20.5075C6.81245 20.3785 6.73813 20.172 6.71748 20.03C6.69737 19.8916 6.71744 19.7633 6.74218 19.6709L6.74403 19.6639L7.49906 17.1351C5.20931 15.8722 3.64746 13.7336 3.64746 11.251Z" fill="current"/>
<path d="M6.46507 9.9118C6.46507 9.68827 6.64628 9.50706 6.86981 9.50706H9.47695C9.70048 9.50706 9.88169 9.68827 9.88169 9.9118C9.88169 10.1353 9.70048 10.3165 9.47695 10.3165H6.86981C6.64628 10.3165 6.46507 10.1353 6.46507 9.9118Z" fill="current"/>
<path d="M9.50301 12.303C9.50301 12.0795 9.68422 11.8983 9.90775 11.8983H11.9128C12.1364 11.8983 12.3176 12.0795 12.3176 12.303C12.3176 12.5265 12.1364 12.7077 11.9128 12.7077H9.90775C9.68422 12.7077 9.50301 12.5265 9.50301 12.303Z" fill="current"/>
<path d="M13.0271 12.987C13.0271 12.7634 13.2083 12.5822 13.4318 12.5822H14.8061C15.0296 12.5822 15.2108 12.7634 15.2108 12.987C15.2108 13.2105 15.0296 13.3917 14.8061 13.3917H13.4318C13.2083 13.3917 13.0271 13.2105 13.0271 12.987Z" fill="current"/>
<path d="M15.7727 12.0915C15.6198 11.9284 15.6281 11.6722 15.7912 11.5194L17.7918 9.64448C17.9549 9.49163 18.211 9.49993 18.3638 9.66303C18.5167 9.82613 18.5084 10.0823 18.3453 10.2351L16.3448 12.11C16.1817 12.2629 15.9255 12.2546 15.7727 12.0915Z" fill="current"/>
<path d="M16.3953 11.0497C16.563 10.902 16.8188 10.9181 16.9665 11.0859L18.44 12.7582C18.5877 12.9259 18.5716 13.1816 18.4038 13.3294C18.2361 13.4772 17.9804 13.461 17.8326 13.2933L16.3592 11.621C16.2114 11.4533 16.2276 11.1975 16.3953 11.0497Z" fill="current"/>
<path d="M8.17285 9.50706C8.39638 9.50706 8.57759 9.68827 8.57759 9.9118L8.57758 12.987C8.57758 13.2105 8.39638 13.3917 8.17284 13.3917C7.94931 13.3917 7.76811 13.2105 7.76811 12.987V9.9118C7.76811 9.68827 7.94931 9.50706 8.17285 9.50706Z" fill="current"/>
<path d="M13.4318 9.50706C13.6553 9.50706 13.8365 9.68827 13.8365 9.9118V12.987C13.8365 13.2105 13.6553 13.3917 13.4318 13.3917C13.2083 13.3917 13.0271 13.2105 13.0271 12.987V9.9118C13.0271 9.68827 13.2083 9.50706 13.4318 9.50706Z" fill="current"/>
<path d="M15.9879 9.50706C16.2114 9.50706 16.3926 9.68827 16.3926 9.9118V12.987C16.3926 13.2105 16.2114 13.3917 15.9879 13.3917C15.7644 13.3917 15.5831 13.2105 15.5831 12.987V9.9118C15.5831 9.68827 15.7644 9.50706 15.9879 9.50706Z" fill="current"/>
<path d="M11.1041 9.48866C11.3225 9.59194 11.4194 9.85439 11.3206 10.0749L9.92041 13.1979C9.82156 13.4184 9.56434 13.5134 9.3459 13.4101C9.12745 13.3068 9.0305 13.0444 9.12935 12.8239L10.5295 9.70088C10.6284 9.4804 10.8856 9.38539 11.1041 9.48866Z" fill="current"/>
<path d="M10.7655 9.48866C10.547 9.59194 10.4501 9.85439 10.5489 10.0749L11.9491 13.1979C12.0479 13.4184 12.3052 13.5134 12.5236 13.4101C12.7421 13.3068 12.839 13.0444 12.7402 12.8239L11.34 9.70088C11.2411 9.4804 10.9839 9.38539 10.7655 9.48866Z" fill="current"/>
</svg>
