<svg xmlns="http://www.w3.org/2000/svg" width="16" height="17" viewBox="0 0 16 17" fill="#525252">
  <path fill-rule="evenodd" clip-rule="evenodd" d="M8.04727 3.507H7.79747C6.11407 3.507 4.67738 4.72398 4.40051 6.38445C4.16501 7.7968 4.59794 9.23851 5.57253 10.2875L7.80412 12.6894C7.89046 12.7823 8.01159 12.8351 8.13844 12.8351C8.27843 12.8351 8.41067 12.7709 8.49719 12.6608L10.568 10.0267C11.279 9.12237 11.6359 7.98991 11.5721 6.84134C11.4681 4.97064 9.92086 3.507 8.04727 3.507ZM7.79747 2.84033C5.7882 2.84033 4.07338 4.29289 3.74292 6.27481C3.47343 7.89104 3.96885 9.54085 5.08413 10.7413L7.31572 13.1432C7.5282 13.3719 7.82627 13.5018 8.13844 13.5018C8.48294 13.5018 8.80838 13.3437 9.02129 13.0728L11.0921 10.4387C11.9033 9.40692 12.3106 8.11482 12.2377 6.80435C12.1141 4.58037 10.2747 2.84033 8.04727 2.84033H7.79747Z" fill="current"/>
  <path fill-rule="evenodd" clip-rule="evenodd" d="M7.99975 7.99909C8.65842 7.99909 9.19237 7.46513 9.19237 6.80646C9.19237 6.14779 8.65842 5.61383 7.99975 5.61383C7.34108 5.61383 6.80712 6.14779 6.80712 6.80646C6.80712 7.46513 7.34108 7.99909 7.99975 7.99909ZM7.99975 8.66575C9.02661 8.66575 9.85904 7.83332 9.85904 6.80646C9.85904 5.7796 9.02661 4.94717 7.99975 4.94717C6.97289 4.94717 6.14045 5.7796 6.14045 6.80646C6.14045 7.83332 6.97289 8.66575 7.99975 8.66575Z" fill="current"/>
</svg>