<svg width="40" height="41" viewBox="0 0 40 41" fill="#262626" xmlns="http://www.w3.org/2000/svg">
<path fill-rule="evenodd" clip-rule="evenodd" d="M15.3753 8.71088C18.2885 7.01822 21.8692 7.0478 24.755 8.78838C27.6125 10.5644 29.3491 13.7341 29.333 17.1438C29.2664 20.5311 27.4042 23.7152 25.0765 26.1766C23.7329 27.6037 22.23 28.8656 20.5983 29.9366C20.4302 30.0337 20.2462 30.0988 20.0552 30.1285C19.8713 30.1207 19.6923 30.0664 19.5342 29.9704C17.0431 28.3613 14.8576 26.3072 13.0829 23.9071C11.598 21.9037 10.7543 19.4832 10.6665 16.9744C10.6646 13.5582 12.4622 10.4035 15.3753 8.71088ZM17.0587 18.3882C17.5487 19.5963 18.7054 20.3843 19.9886 20.3843C20.8293 20.3903 21.6374 20.0536 22.2329 19.4491C22.8284 18.8447 23.1618 18.0227 23.1588 17.1664C23.1633 15.8592 22.3938 14.6783 21.2095 14.1749C20.0252 13.6715 18.6599 13.945 17.7509 14.8676C16.8419 15.7903 16.5687 17.1801 17.0587 18.3882Z" fill="current"/>
<path d="M25.9524 32.0809C25.9524 32.8173 23.6819 33.4143 20 33.4143C16.3181 33.4143 14.0476 32.8173 14.0476 32.0809C14.0476 31.3446 16.3181 30.7476 20 30.7476C23.6819 30.7476 25.9524 31.3446 25.9524 32.0809Z" fill="#B3B3B3"/>
</svg>
