<svg width="56" height="57" viewBox="0 0 56 57" fill="#262626" xmlns="http://www.w3.org/2000/svg">
<path fill-rule="evenodd" clip-rule="evenodd" d="M21.5255 11.8771C25.6039 9.50741 30.6169 9.54883 34.657 11.9856C38.6574 14.4721 41.0888 18.9096 41.0661 23.6832C40.973 28.4254 38.3659 32.8832 35.1071 36.3292C33.2261 38.3271 31.122 40.0938 28.8376 41.5931C28.6023 41.7291 28.3446 41.8202 28.0772 41.8618C27.8198 41.8509 27.5692 41.7748 27.3478 41.6405C23.8603 39.3877 20.8007 36.512 18.3161 33.1519C16.2371 30.347 15.056 26.9584 14.9331 23.4461C14.9304 18.6634 17.4471 14.2469 21.5255 11.8771ZM23.8822 25.4254C24.5682 27.1167 26.1876 28.2199 27.9841 28.2199C29.161 28.2284 30.2924 27.757 31.1261 26.9107C31.9598 26.0645 32.4265 24.9137 32.4223 23.7148C32.4286 21.8848 31.3513 20.2315 29.6933 19.5267C28.0353 18.822 26.1238 19.2049 24.8513 20.4966C23.5787 21.7883 23.1961 23.7341 23.8822 25.4254Z" fill="current"/>
<path d="M36.3333 44.5952C36.3333 45.6262 33.1547 46.4619 28 46.4619C22.8453 46.4619 19.6667 45.6262 19.6667 44.5952C19.6667 43.5643 22.8453 42.7286 28 42.7286C33.1547 42.7286 36.3333 43.5643 36.3333 44.5952Z" fill="#B3B3B3"/>
</svg>
