<svg xmlns="http://www.w3.org/2000/svg" width="16" height="17" viewBox="0 0 16 17" fill="#525252">
  <path fill-rule="evenodd" clip-rule="evenodd" d="M4.2286 4.39724C5.2288 3.39705 6.58535 2.83514 7.99984 2.83514C9.41433 2.83514 10.7709 3.39705 11.7711 4.39724C12.7713 5.39744 13.3332 6.75399 13.3332 8.16848C13.3332 9.58297 12.7713 10.9395 11.7711 11.9397C10.7709 12.9399 9.41433 13.5018 7.99984 13.5018C6.58535 13.5018 5.2288 12.9399 4.2286 11.9397C3.22841 10.9395 2.6665 9.58297 2.6665 8.16848C2.6665 6.75399 3.22841 5.39744 4.2286 4.39724ZM7.99984 3.50181C6.76216 3.50181 5.57518 3.99348 4.70001 4.86865C3.82484 5.74382 3.33317 6.9308 3.33317 8.16848C3.33317 9.40615 3.82484 10.5931 4.70001 11.4683C5.57518 12.3435 6.76216 12.8351 7.99984 12.8351C9.23751 12.8351 10.4245 12.3435 11.2997 11.4683C12.1748 10.5931 12.6665 9.40615 12.6665 8.16848C12.6665 6.9308 12.1748 5.74382 11.2997 4.86865C10.4245 3.99348 9.23751 3.50181 7.99984 3.50181Z" fill="current"/>
  <path fill-rule="evenodd" clip-rule="evenodd" d="M7.76123 5.99908C7.94533 5.99908 8.09456 6.14831 8.09456 6.33241V8.31529L9.83384 9.39893C9.99009 9.49628 10.0378 9.70187 9.94049 9.85812C9.84314 10.0144 9.63755 10.0621 9.4813 9.96476L7.58496 8.78326C7.48727 8.72239 7.4279 8.61544 7.4279 8.50034V6.33241C7.4279 6.14831 7.57714 5.99908 7.76123 5.99908Z" fill="current"/>
</svg>