<svg width="25" height="25" viewBox="0 0 25 25" fill="black" xmlns="http://www.w3.org/2000/svg">
<path d="M20.2088 6.11629C20.3926 6.11783 20.5723 6.16959 20.7288 6.26597C20.8852 6.36235 21.0122 6.49968 21.0962 6.66309C21.1802 6.8265 21.2178 7.00977 21.2051 7.19305C21.1924 7.37633 21.1298 7.55264 21.024 7.70289L20.0092 9.14534C19.9468 14.099 18.2901 17.4621 15.0848 19.1422C13.5573 19.9013 11.8697 20.2818 10.1643 20.2515C8.05551 20.3 5.97166 19.7878 4.12567 18.7672C4.00149 18.6837 3.90551 18.5646 3.8504 18.4255C3.79528 18.2864 3.78361 18.1339 3.81692 17.988C3.84811 17.84 3.92345 17.7049 4.03299 17.6006C4.14254 17.4962 4.28115 17.4276 4.43052 17.4036C5.67062 17.2304 6.89179 16.9415 8.07804 16.5407C2.76211 14.0814 3.92114 8.55317 4.4276 6.85554C4.47697 6.687 4.56981 6.53441 4.69679 6.41309C4.82378 6.29176 4.98044 6.20598 5.15105 6.16434C5.32167 6.12269 5.50024 6.12666 5.66883 6.17584C5.83743 6.22502 5.99013 6.31768 6.11159 6.44452C7.66764 8.0479 9.7308 9.06313 11.9505 9.31773C11.9112 8.72121 12.0034 8.12333 12.2207 7.5664C12.4379 7.00946 12.775 6.5071 13.2079 6.09487C13.958 5.38306 14.9536 4.98785 15.9877 4.99148C17.0217 4.99511 18.0145 5.39729 18.7596 6.11435L20.2088 6.11629ZM5.21749 18.2636C7.03102 19.113 11.2814 20.0353 14.6329 18.2792C17.5109 16.7706 18.9923 13.6704 19.0362 9.0645C19.0381 8.9122 19.0864 8.7641 19.1745 8.63985L20.2273 7.14188L20.1874 7.09026C19.6829 7.08345 19.1852 7.07663 18.6778 7.09026C18.4799 7.08573 18.2905 7.0092 18.145 6.87502C17.5843 6.30669 16.8231 5.98098 16.0249 5.96787C15.2266 5.95476 14.4551 6.25529 13.8761 6.80489C13.5042 7.1586 13.2262 7.59935 13.0672 8.08736C12.9082 8.57536 12.8732 9.09528 12.9654 9.60018C12.9824 9.69424 12.9777 9.79093 12.9517 9.8829C12.9257 9.97488 12.8791 10.0597 12.8154 10.131C12.7544 10.2029 12.6767 10.2587 12.5891 10.2935C12.5014 10.3283 12.4066 10.3411 12.3129 10.3307C9.69601 10.148 7.23887 9.00515 5.41326 7.12143C4.7607 9.14534 3.93282 14.0308 9.18155 15.9505C9.29201 15.9901 9.38884 16.0605 9.46062 16.1533C9.53241 16.2462 9.57616 16.3576 9.58672 16.4745C9.5986 16.5896 9.57742 16.7057 9.52567 16.8092C9.47392 16.9127 9.39374 16.9993 9.29453 17.0588C8.01194 17.6843 6.63403 18.0915 5.21749 18.2636Z" fill="current"/>
</svg>
