<svg width="24" height="25" viewBox="0 0 24 25" fill="white" xmlns="http://www.w3.org/2000/svg">
<path fill-rule="evenodd" clip-rule="evenodd" d="M11.6104 18.3892C15.2611 18.3892 18.2207 15.4296 18.2207 11.7788C18.2207 8.12801 15.2611 5.16846 11.6104 5.16846C7.95956 5.16846 5 8.12801 5 11.7788C5 15.4296 7.95956 18.3892 11.6104 18.3892ZM11.6104 19.3892C15.8134 19.3892 19.2207 15.9819 19.2207 11.7788C19.2207 7.57573 15.8134 4.16846 11.6104 4.16846C7.40727 4.16846 4 7.57573 4 11.7788C4 15.9819 7.40727 19.3892 11.6104 19.3892Z" fill="current"/>
<path fill-rule="evenodd" clip-rule="evenodd" d="M8.74637 11.7071C8.78199 11.4333 9.03285 11.2402 9.30669 11.2758C9.30311 11.2753 9.30625 11.2754 9.3183 11.2759C9.33737 11.2766 9.37874 11.2782 9.4511 11.2796C9.55292 11.2815 9.69131 11.283 9.85874 11.284C10.1932 11.2861 10.6372 11.2863 11.1229 11.2853C12.094 11.2835 13.2274 11.277 13.9749 11.2716C14.251 11.2696 14.4765 11.4919 14.4785 11.768C14.4805 12.0441 14.2583 12.2696 13.9821 12.2716C13.2336 12.277 12.0982 12.2835 11.1248 12.2853C10.6383 12.2863 10.1911 12.2861 9.85264 12.284C9.68361 12.283 9.54008 12.2815 9.43169 12.2794C9.33955 12.2776 9.23661 12.2751 9.17768 12.2674C8.90385 12.2318 8.71074 11.9809 8.74637 11.7071Z" fill="current"/>
<path fill-rule="evenodd" clip-rule="evenodd" d="M11.6817 8.91482C11.9555 8.95045 12.1486 9.20131 12.113 9.47515C12.1135 9.47157 12.1134 9.47471 12.1129 9.48676C12.1122 9.50582 12.1106 9.5472 12.1092 9.61956C12.1073 9.72138 12.1058 9.85977 12.1048 10.0272C12.1027 10.3617 12.1025 10.8057 12.1035 11.2913C12.1053 12.2624 12.1118 13.3959 12.1172 14.1434C12.1192 14.4195 11.8969 14.645 11.6208 14.647C11.3447 14.6489 11.1192 14.4267 11.1172 14.1506C11.1118 13.402 11.1053 12.2667 11.1035 11.2933C11.1025 10.8067 11.1027 10.3596 11.1048 10.0211C11.1058 9.85207 11.1073 9.70854 11.1094 9.60015C11.1112 9.50801 11.1137 9.40507 11.1214 9.34614C11.157 9.07231 11.4079 8.8792 11.6817 8.91482Z" fill="current"/>
<path fill-rule="evenodd" clip-rule="evenodd" d="M17.3719 17.5421C17.5672 17.3468 17.8838 17.3468 18.079 17.5421L19.8353 19.2984C20.0306 19.4936 20.0306 19.8102 19.8353 20.0055C19.64 20.2007 19.3235 20.2007 19.1282 20.0055L17.3719 18.2492C17.1767 18.0539 17.1767 17.7373 17.3719 17.5421Z" fill="current"/>
</svg>
