<svg width="64" height="18" viewBox="0 0 64 18" fill="black" xmlns="http://www.w3.org/2000/svg">
<path d="M26.1786 8.8883C26.1786 8.08168 26.3151 7.29367 26.5882 6.52428C26.8736 5.74248 27.2831 5.03513 27.8167 4.40225C28.3627 3.75695 29.0266 3.24816 29.8084 2.87587C30.5902 2.49118 31.4775 2.29883 32.4703 2.29883C33.6492 2.29883 34.6606 2.57184 35.5044 3.11786C36.3483 3.65147 36.9749 4.3402 37.3845 5.18405L36.0628 6.04031C35.8022 5.48188 35.4672 5.04134 35.0577 4.71869C34.6606 4.38363 34.2262 4.14785 33.7547 4.01135C33.2955 3.87484 32.8426 3.80659 32.3958 3.80659C31.6637 3.80659 31.0122 3.9555 30.4413 4.25333C29.8829 4.55116 29.4113 4.94827 29.0266 5.44465C28.6419 5.94103 28.3503 6.49946 28.1518 7.11994C27.9656 7.72801 27.8725 8.34228 27.8725 8.96276C27.8725 9.64528 27.9842 10.303 28.2076 10.9359C28.4434 11.5688 28.766 12.1272 29.1755 12.6112C29.5851 13.0951 30.069 13.4798 30.6275 13.7653C31.1859 14.0507 31.794 14.1934 32.4517 14.1934C32.9108 14.1934 33.3824 14.1127 33.8664 13.9514C34.3503 13.7901 34.8033 13.5419 35.2252 13.2068C35.6471 12.8594 35.9822 12.4126 36.2304 11.8666L37.6264 12.6298C37.3534 13.2875 36.9315 13.8459 36.3607 14.3051C35.7898 14.7642 35.1507 15.1117 34.4434 15.3475C33.7485 15.5833 33.0597 15.7011 32.3772 15.7011C31.4713 15.7011 30.6399 15.5088 29.8829 15.1241C29.1259 14.727 28.4682 14.2058 27.9098 13.5605C27.3637 12.9028 26.9356 12.1706 26.6254 11.364C26.3275 10.545 26.1786 9.71974 26.1786 8.8883ZM0.40332 2.37329V15.5895H4.98244C6.28545 15.5895 7.41472 15.3164 8.37025 14.7704C9.32579 14.2244 10.0642 13.455 10.5854 12.4622C11.1066 11.4695 11.3672 10.303 11.3672 8.96276C11.3672 7.74662 11.1314 6.64217 10.6598 5.64941C10.1883 4.64423 9.4747 3.85002 8.51917 3.26677C7.57604 2.67111 6.39713 2.37329 4.98244 2.37329H0.40332ZM9.11482 6.31952C9.48711 7.08891 9.67325 7.96999 9.67325 8.96276C9.67325 9.9307 9.49331 10.8056 9.13344 11.5874C8.77356 12.3568 8.24616 12.971 7.55122 13.4302C6.85629 13.8769 6.00003 14.1003 4.98244 14.1003H2.07861V3.86243H4.98244C5.98762 3.86243 6.83767 4.0796 7.53261 4.51393C8.22754 4.94827 8.75495 5.55013 9.11482 6.31952ZM16.1477 15.1427C16.8674 15.5026 17.7547 15.6825 18.8095 15.6825C19.8271 15.6825 20.6896 15.5088 21.3969 15.1613C22.1167 14.8014 22.6999 14.3175 23.1467 13.7094C23.5934 13.1013 23.9161 12.4002 24.1146 11.606C24.3256 10.7994 24.4311 9.94932 24.4311 9.05583V2.37329H22.7558V9.05583C22.7558 9.68872 22.6875 10.3092 22.551 10.9173C22.4269 11.5253 22.216 12.0776 21.9181 12.5739C21.6203 13.0579 21.217 13.4488 20.7082 13.7466C20.1994 14.0321 19.5603 14.1748 18.7909 14.1748C18.0339 14.1748 17.4011 14.0321 16.8923 13.7466C16.3835 13.4612 15.9802 13.0765 15.6823 12.5926C15.3845 12.1086 15.1673 11.5626 15.0308 10.9545C14.9067 10.334 14.8447 9.70113 14.8447 9.05583V2.37329H13.1694V9.05583C13.1694 9.89968 13.2687 10.7187 13.4672 11.5129C13.6658 12.3071 13.9822 13.0207 14.4166 13.6536C14.8509 14.274 15.4279 14.7704 16.1477 15.1427ZM39.3509 2.3919V15.5895H41.0262V11.5501L43.2785 9.20474L48.0624 15.5895H49.9424L44.3395 8.19957L49.6446 2.37329H47.839L41.0262 9.68872V2.3919H39.3509ZM57.7443 2.70834V8.56069H63.5967V9.85624H57.7443V15.6863H56.4711V9.85624H50.6188V8.56069H56.4711V2.70834H57.7443Z" fill="current"/>
<path d="M26.1786 8.8883C26.1786 8.08168 26.3151 7.29367 26.5882 6.52428C26.8736 5.74248 27.2831 5.03513 27.8167 4.40225C28.3627 3.75695 29.0266 3.24816 29.8084 2.87587C30.5902 2.49118 31.4775 2.29883 32.4703 2.29883C33.6492 2.29883 34.6606 2.57184 35.5044 3.11786C36.3483 3.65147 36.9749 4.3402 37.3845 5.18405L36.0628 6.04031C35.8022 5.48188 35.4672 5.04134 35.0577 4.71869C34.6606 4.38363 34.2262 4.14785 33.7547 4.01135C33.2955 3.87484 32.8426 3.80659 32.3958 3.80659C31.6637 3.80659 31.0122 3.9555 30.4413 4.25333C29.8829 4.55116 29.4113 4.94827 29.0266 5.44465C28.6419 5.94103 28.3503 6.49946 28.1518 7.11994C27.9656 7.72801 27.8725 8.34228 27.8725 8.96276C27.8725 9.64528 27.9842 10.303 28.2076 10.9359C28.4434 11.5688 28.766 12.1272 29.1755 12.6112C29.5851 13.0951 30.069 13.4798 30.6275 13.7653C31.1859 14.0507 31.794 14.1934 32.4517 14.1934C32.9108 14.1934 33.3824 14.1127 33.8664 13.9514C34.3503 13.7901 34.8033 13.5419 35.2252 13.2068C35.6471 12.8594 35.9822 12.4126 36.2304 11.8666L37.6264 12.6298C37.3534 13.2875 36.9315 13.8459 36.3607 14.3051C35.7898 14.7642 35.1507 15.1117 34.4434 15.3475C33.7485 15.5833 33.0597 15.7011 32.3772 15.7011C31.4713 15.7011 30.6399 15.5088 29.8829 15.1241C29.1259 14.727 28.4682 14.2058 27.9098 13.5605C27.3637 12.9028 26.9356 12.1706 26.6254 11.364C26.3275 10.545 26.1786 9.71974 26.1786 8.8883ZM0.40332 2.37329V15.5895H4.98244C6.28545 15.5895 7.41472 15.3164 8.37025 14.7704C9.32579 14.2244 10.0642 13.455 10.5854 12.4622C11.1066 11.4695 11.3672 10.303 11.3672 8.96276C11.3672 7.74662 11.1314 6.64217 10.6598 5.64941C10.1883 4.64423 9.4747 3.85002 8.51917 3.26677C7.57604 2.67111 6.39713 2.37329 4.98244 2.37329H0.40332ZM9.11482 6.31952C9.48711 7.08891 9.67325 7.96999 9.67325 8.96276C9.67325 9.9307 9.49331 10.8056 9.13344 11.5874C8.77356 12.3568 8.24616 12.971 7.55122 13.4302C6.85629 13.8769 6.00003 14.1003 4.98244 14.1003H2.07861V3.86243H4.98244C5.98762 3.86243 6.83767 4.0796 7.53261 4.51393C8.22754 4.94827 8.75495 5.55013 9.11482 6.31952ZM16.1477 15.1427C16.8674 15.5026 17.7547 15.6825 18.8095 15.6825C19.8271 15.6825 20.6896 15.5088 21.3969 15.1613C22.1167 14.8014 22.6999 14.3175 23.1467 13.7094C23.5934 13.1013 23.9161 12.4002 24.1146 11.606C24.3256 10.7994 24.4311 9.94932 24.4311 9.05583V2.37329H22.7558V9.05583C22.7558 9.68872 22.6875 10.3092 22.551 10.9173C22.4269 11.5253 22.216 12.0776 21.9181 12.5739C21.6203 13.0579 21.217 13.4488 20.7082 13.7466C20.1994 14.0321 19.5603 14.1748 18.7909 14.1748C18.0339 14.1748 17.4011 14.0321 16.8923 13.7466C16.3835 13.4612 15.9802 13.0765 15.6823 12.5926C15.3845 12.1086 15.1673 11.5626 15.0308 10.9545C14.9067 10.334 14.8447 9.70113 14.8447 9.05583V2.37329H13.1694V9.05583C13.1694 9.89968 13.2687 10.7187 13.4672 11.5129C13.6658 12.3071 13.9822 13.0207 14.4166 13.6536C14.8509 14.274 15.4279 14.7704 16.1477 15.1427ZM39.3509 2.3919V15.5895H41.0262V11.5501L43.2785 9.20474L48.0624 15.5895H49.9424L44.3395 8.19957L49.6446 2.37329H47.839L41.0262 9.68872V2.3919H39.3509ZM57.7443 2.70834V8.56069H63.5967V9.85624H57.7443V15.6863H56.4711V9.85624H50.6188V8.56069H56.4711V2.70834H57.7443Z" stroke="current"/>
</svg>
